# xmcd
#
# Track frame offsets:
#	150
#	22665
#	62709
#
# Disc length: 1111 seconds
#
# Revision: 1
# Processed by: cddbd v1.5.1PL0 Copyright (c) Steve Scherf et al.
# Submitted via: EasyCDDAExtractor 7.1.0.1
#
DISCID=18045503
DTITLE=Hans-Olof Andersson - Schrödinger är död
DYEAR=2003
DGENRE=pop
TTITLE0=Schrödinger är död
TTITLE1=Inuti lådan
TTITLE2=En bön för Sverige (live)
EXTD=
EXTT0=
EXTT1=
EXTT2=
PLAYORDER=
